<svg aria-hidden="true" style="width:0;height:0;position:absolute;overflow:hidden" xmlns="http://www.w3.org/2000/svg"><defs><symbol id="icon-instagram" viewBox="0 0 32 32"><path d="M0 16C0 7.163 7.163 0 16 0s16 7.163 16 16-7.163 16-16 16S0 24.837 0 16zm16-8.533c-2.317 0-2.608.01-3.518.051-.908.042-1.528.186-2.07.397a4.205 4.205 0 0 0-1.512.983l-.001.001c-.423.416-.758.92-.975 1.482l-.01.029c-.211.543-.355 1.163-.396 2.071-.04.91-.051 1.201-.051 3.52 0 2.317.01 2.607.051 3.517.042.908.186 1.528.397 2.07.226.592.561 1.097.983 1.512l.001.001c.474.474.95.767 1.511.985.543.21 1.163.354 2.072.396.91.041 1.2.052 3.518.052 2.317 0 2.607-.01 3.518-.052.908-.042 1.529-.185 2.072-.396a4.182 4.182 0 0 0 1.509-.984l.001-.001c.475-.475.767-.95.985-1.512.21-.543.354-1.163.397-2.071.04-.91.051-1.2.051-3.518s-.01-2.608-.051-3.518c-.043-.909-.187-1.53-.397-2.072a4.208 4.208 0 0 0-.984-1.509L23.1 8.9a4.175 4.175 0 0 0-1.481-.974l-.029-.01c-.545-.211-1.165-.355-2.074-.397-.91-.041-1.2-.051-3.518-.051h.003z"/><path d="M15.235 9.005H16c2.279 0 2.549.008 3.449.05.832.037 1.283.176 1.584.293.398.155.682.34.98.638.3.299.484.583.64.982.116.3.255.752.293 1.584.041.9.05 1.17.05 3.447s-.009 2.547-.05 3.447c-.038.832-.177 1.284-.294 1.584a2.651 2.651 0 0 1-.637.979l-.001.001a2.643 2.643 0 0 1-.962.632l-.018.006c-.301.118-.753.256-1.585.294-.9.041-1.17.05-3.449.05s-2.548-.009-3.448-.05c-.832-.038-1.283-.177-1.584-.294a2.659 2.659 0 0 1-.981-.637l-.001-.001a2.655 2.655 0 0 1-.632-.962l-.006-.018c-.117-.301-.256-.753-.294-1.585-.041-.9-.05-1.17-.05-3.448 0-2.28.009-2.548.05-3.447.038-.833.177-1.284.294-1.585.154-.398.34-.683.638-.981s.583-.484.982-.639c.3-.117.752-.256 1.584-.294.787-.036 1.093-.046 2.683-.048v.002zm5.32 1.417a1.023 1.023 0 1 0 0 2.048 1.023 1.023 0 1 0 0-2.048zM16 11.618a4.383 4.383 0 0 0 0 8.766 4.383 4.383 0 0 0 0-8.766z"/><path d="M16 13.155a2.845 2.845 0 0 1 0 5.69 2.845 2.845 0 0 1 0-5.69z"/></symbol><symbol id="icon-facebook" viewBox="0 0 32 32"><path d="M0 16C0 7.163 7.163 0 16 0s16 7.163 16 16-7.163 16-16 16S0 24.837 0 16zm17.668 9.408v-8.705h2.403l.318-3h-2.721l.004-1.501c0-.783.074-1.202 1.198-1.202h1.502V8H17.97c-2.887 0-3.903 1.455-3.903 3.902v1.801h-1.8v3h1.8v8.705h3.602z"/></symbol><symbol id="icon-logo" viewBox="0 0 75 32"><path d="m4.076 7.397-1.239-.75c-.777-.473-1.332-.938-1.663-1.394a2.689 2.689 0 0 1-.489-1.59c0-.897.31-1.625.929-2.185.625-.56 1.435-.84 2.429-.84.951 0 1.823.266 2.617.799v1.851C5.839 2.5 4.956 2.106 4.011 2.106c-.533 0-.97.125-1.313.375-.342.245-.514.56-.514.946 0 .342.125.663.375.962s.655.611 1.215.938l1.247.734c1.391.826 2.087 1.88 2.087 3.163 0 .913-.307 1.655-.921 2.226-.609.571-1.402.856-2.38.856-1.125 0-2.149-.345-3.073-1.035V9.2c.88 1.114 1.899 1.671 3.057 1.671.511 0 .935-.141 1.272-.424.342-.288.514-.647.514-1.076 0-.696-.5-1.353-1.5-1.973zM16.932.785h1.63v11.389h-1.63V7.217h-6.399v4.957h-1.63V.785h1.63v4.924h6.399V.785zm9.742-.163c1.761 0 3.226.557 4.394 1.671 1.174 1.114 1.761 2.511 1.761 4.19s-.592 3.071-1.777 4.174c-1.179 1.098-2.668 1.647-4.467 1.647-1.717 0-3.149-.549-4.296-1.647-1.141-1.103-1.712-2.484-1.712-4.141 0-1.701.576-3.109 1.728-4.223S24.914.622 26.675.622zm.065 1.549c-1.304 0-2.378.408-3.22 1.223-.837.815-1.255 1.856-1.255 3.122 0 1.228.421 2.25 1.264 3.065s1.897 1.223 3.163 1.223c1.272 0 2.332-.416 3.179-1.247.853-.832 1.28-1.867 1.28-3.106 0-1.207-.427-2.22-1.28-3.041-.848-.826-1.891-1.239-3.13-1.239zm7.997 10.003V.769h3.611c1.087 0 1.954.293 2.601.88s.97 1.375.97 2.364c0 .663-.166 1.25-.497 1.761s-.785.883-1.361 1.117c-.576.228-1.402.342-2.478.342h-1.206v4.94h-1.639zm3.326-9.954h-1.687v3.562h1.785c.663 0 1.174-.155 1.533-.465.359-.315.538-.764.538-1.345 0-1.168-.723-1.753-2.169-1.753zM11.739 28.448c0 .973-.334 1.75-1.003 2.332-.663.581-1.592.872-2.788.872h-6.53V20.353H6.88c.707 0 1.321.068 1.842.204.527.136.951.323 1.272.563.321.234.56.511.717.831s.236.671.236 1.052a2.778 2.778 0 0 1-.856 2.013c-.239.223-.481.38-.726.473.772.304 1.359.69 1.761 1.158.408.462.611 1.062.611 1.802zm-3.978-4.842c0-.544-.179-.905-.538-1.084s-.918-.269-1.679-.269h-.717v2.706h.734c.777 0 1.337-.09 1.679-.269.348-.179.522-.541.522-1.084zm.554 4.704c0-.967-.701-1.451-2.103-1.451H4.826v2.894h1.386c1.402 0 2.103-.481 2.103-1.443zm17.527 3.342h-3.489l-.921-2.291h-4.908l-.938 2.291h-3.489l4.997-11.299h3.766l4.981 11.299zm-5.193-4.255-1.655-4.125-1.671 4.125h3.326zm18.579 4.255H35.07l-4.321-5.291v5.291h-3.408V20.353h3.408v5.054l4.092-5.054h3.701l-4.206 5.291 4.891 6.008zm10.003 0h-8.519V20.353h8.38v2.266h-4.973v2.071h4.745v2.274h-4.745v2.413h5.111v2.274zm13.231 0h-3.66l-.889-2.005c-.326-.734-.62-1.269-.88-1.606-.261-.342-.516-.56-.766-.652-.245-.098-.563-.147-.954-.147h-.383v4.41h-3.408V20.353h5.796c.935 0 1.701.19 2.299.571s1.027.842 1.288 1.386c.266.544.399 1.06.399 1.549 0 .571-.111 1.054-.334 1.451-.217.391-.448.677-.693.856s-.519.351-.823.514c.364.212.663.465.897.758.239.288.563.875.97 1.761l1.141 2.454zm-4.631-7.728c0-.522-.171-.886-.514-1.092s-.899-.31-1.671-.31h-.717v2.723h.734c.831 0 1.399-.09 1.704-.269.31-.185.465-.535.465-1.052zm16.712-3.571-4.426 6.122v5.177h-3.408v-5.111l-4.508-6.187h3.538l2.592 3.554 2.601-3.554h3.611z"/></symbol><symbol id="icon-menu" viewBox="0 0 32 32"><path d="M29.333 24.007c0 .733-.595 1.327-1.327 1.327h-10.68a1.327 1.327 0 1 1 0-2.654h10.68c.733 0 1.327.593 1.327 1.327zm0-8.007c0 .733-.595 1.327-1.327 1.327H3.993a1.327 1.327 0 1 1 0-2.654h24.013c.733 0 1.327.595 1.327 1.327zm-1.326-6.68a1.327 1.327 0 1 0 0-2.654H11.994a1.327 1.327 0 1 0 0 2.654h16.013z"/></symbol><symbol id="icon-close" viewBox="0 0 32 32"><path stroke-linejoin="round" stroke-linecap="round" stroke-width="2" d="m27.428 3.429-24 24m0-24 24 24"/></symbol></defs></svg>